<?xml version="1.0" encoding="UTF-8" standalone="no"?>
<!-- Created with Inkscape (http://www.inkscape.org/) -->

<svg
   width="32"
   height="32"
   viewBox="0 0 8.4666673 8.4666669"
   version="1.1"
   id="svg1"
   inkscape:version="1.4 (e7c3feb100, 2024-10-09)"
   sodipodi:docname="Python-logo.svg"
   xmlns:inkscape="http://www.inkscape.org/namespaces/inkscape"
   xmlns:sodipodi="http://sodipodi.sourceforge.net/DTD/sodipodi-0.dtd"
   xmlns:xlink="http://www.w3.org/1999/xlink"
   xmlns="http://www.w3.org/2000/svg"
   xmlns:svg="http://www.w3.org/2000/svg">
  <sodipodi:namedview
     id="namedview1"
     pagecolor="#ffffff"
     bordercolor="#000000"
     borderopacity="0.25"
     inkscape:showpageshadow="2"
     inkscape:pageopacity="0.0"
     inkscape:pagecheckerboard="0"
     inkscape:deskcolor="#d1d1d1"
     inkscape:document-units="mm"
     inkscape:zoom="6.0624288"
     inkscape:cx="8.8248459"
     inkscape:cy="68.536888"
     inkscape:window-width="3390"
     inkscape:window-height="1412"
     inkscape:window-x="0"
     inkscape:window-y="0"
     inkscape:window-maximized="1"
     inkscape:current-layer="layer1" />
  <defs
     id="defs1">
    <linearGradient
       inkscape:collect="always"
       xlink:href="#linearGradient4671"
       id="linearGradient1475"
       gradientUnits="userSpaceOnUse"
       gradientTransform="matrix(0.14883897,0,0,0.15027592,100.54402,85.009998)"
       x1="150.96111"
       y1="192.35176"
       x2="112.03144"
       y2="137.27299" />
    <linearGradient
       id="linearGradient4671">
      <stop
         style="stop-color:#ffd43b;stop-opacity:1;"
         offset="0"
         id="stop4673" />
      <stop
         style="stop-color:#ffe873;stop-opacity:1"
         offset="1"
         id="stop4675" />
    </linearGradient>
    <linearGradient
       inkscape:collect="always"
       xlink:href="#linearGradient4689"
       id="linearGradient1478"
       gradientUnits="userSpaceOnUse"
       gradientTransform="matrix(0.14883897,0,0,0.15027592,100.54402,85.009998)"
       x1="26.648937"
       y1="20.603781"
       x2="135.66525"
       y2="114.39767" />
    <linearGradient
       id="linearGradient4689">
      <stop
         style="stop-color:#5a9fd4;stop-opacity:1;"
         offset="0"
         id="stop4691" />
      <stop
         style="stop-color:#306998;stop-opacity:1;"
         offset="1"
         id="stop4693" />
    </linearGradient>
  </defs>
  <g
     inkscape:label="Ebene 1"
     inkscape:groupmode="layer"
     id="layer1"
     transform="translate(-112.10432,-88.149893)">
    <g
       id="g1"
       transform="matrix(0.28786983,0,0,0.28472536,82.018925,63.063809)"
       style="stroke-width:3.49292">
      <path
         style="fill:url(#linearGradient1478);fill-opacity:1;stroke-width:0.924168"
         d="m 119.04102,88.106493 c -1.21276,0.0056 -2.37092,0.109066 -3.38998,0.289388 -3.00202,0.530359 -3.54707,1.640444 -3.54707,3.68763 v 2.703711 h 7.09414 v 0.901237 h -7.09414 -2.66237 c -2.06175,0 -3.86709,1.239234 -4.43177,3.59668 -0.65136,2.702181 -0.68025,4.388381 0,7.209891 0.50428,2.10023 1.70856,3.59668 3.77031,3.59668 h 2.43913 v -3.24114 c 0,-2.34154 2.02595,-4.40697 4.43177,-4.40697 h 7.08587 c 1.97246,0 3.54707,-1.62405 3.54707,-3.604946 v -6.755143 c 0,-1.922552 -1.62189,-3.366764 -3.54707,-3.68763 -1.21866,-0.202862 -2.48314,-0.295023 -3.69589,-0.289388 z m -3.83646,2.174545 c 0.73277,0 1.33118,0.608183 1.33118,1.355989 0,0.745156 -0.59841,1.347721 -1.33118,1.347721 -0.73541,0 -1.33119,-0.602566 -1.33119,-1.347721 0,-0.747806 0.59578,-1.355989 1.33119,-1.355989 z"
         id="path1948" />
      <path
         style="fill:url(#linearGradient1475);fill-opacity:1;stroke-width:0.924168"
         d="m 127.16868,95.688459 v 3.150195 c 0,2.442306 -2.0706,4.497916 -4.43177,4.497916 h -7.08587 c -1.94094,0 -3.54707,1.66118 -3.54707,3.60495 v 6.75514 c 0,1.92255 1.67179,3.05338 3.54707,3.60495 2.24561,0.6603 4.39903,0.77963 7.08587,0 1.78598,-0.5171 3.54707,-1.55776 3.54707,-3.60495 v -2.70371 h -7.08587 v -0.90124 h 7.08587 3.54707 c 2.06176,0 2.83005,-1.43811 3.54707,-3.59668 0.74066,-2.2222 0.70914,-4.35921 0,-7.209891 -0.50953,-2.05249 -1.48269,-3.59668 -3.54707,-3.59668 z m -3.98528,17.106971 c 0.7354,0 1.33118,0.60256 1.33118,1.34772 0,0.7478 -0.59578,1.35599 -1.33118,1.35599 -0.73278,0 -1.33119,-0.60819 -1.33119,-1.35599 0,-0.74516 0.59841,-1.34772 1.33119,-1.34772 z"
         id="path1950" />
    </g>
  </g>
</svg>
